name analog
datacolumns 19
datarows 49
range 0.1705 0.1945
endheader
time	ground_force_vx	ground_force_vy	ground_force_vz	ground_force_px	ground_force_py	ground_force_pz	l_ground_force_vx	l_ground_force_vy	l_ground_force_vz	l_ground_force_px	l_ground_force_py	l_ground_force_pz	ground_torque_x	ground_torque_y	ground_torque_z	l_ground_torque_x	l_ground_torque_y	l_ground_torque_z
0.1705	-0.0	-0.0	-0.0	-10.297562599182127	4.404862403869629	-710.2482299804688	1.5847151279449463	-0.4175563752651214	-20.90155601501465	-0.0	-0.0	-0.0	-0.0	-0.0	-0.0	7488.9033203125	2668.356689453125	649.5907592773438
0.171	-0.0	-0.0	-0.0	-9.62157917022705	4.7616167068481445	-713.1721801757812	-0.0	-0.0	-0.0	-0.0	-0.0	-0.0	-0.0	-0.0	-0.0	-0.0	-0.0	-0.0
0.1715	-0.0	-0.0	-0.0	-8.729972839355469	5.067786693572998	-715.3910522460938	-0.0	-0.0	-0.0	-0.0	-0.0	-0.0	-0.0	-0.0	-0.0	-0.0	-0.0	-0.0
0.17200000000000001	-0.0	-0.0	-0.0	-8.487722396850586	5.666277885437012	-717.4094848632812	-0.0	-0.0	-0.0	-0.0	-0.0	-0.0	-0.0	-0.0	-0.0	-0.0	-0.0	-0.0
0.17250000000000001	-0.0	-0.0	-0.0	-8.258365631103516	6.722957611083984	-719.0237426757812	-0.0	-0.0	-0.0	-0.0	-0.0	-0.0	-0.0	-0.0	-0.0	-0.0	-0.0	-0.0
0.17300000000000001	-0.0	-0.0	-0.0	-8.296577453613281	7.040458679199219	-721.1951293945312	-0.0	-0.0	-0.0	-0.0	-0.0	-0.0	-0.0	-0.0	-0.0	-0.0	-0.0	-0.0
0.17350000000000002	-0.0	-0.0	-0.0	-8.245500564575195	7.270593166351318	-720.6380004882812	-0.0	-0.0	-0.0	-0.0	-0.0	-0.0	-0.0	-0.0	-0.0	-0.0	-0.0	-0.0
0.17400000000000002	-0.0	-0.0	-0.0	-8.3970308303833	7.156397819519043	-722.40380859375	-0.0	-0.0	-0.0	-0.0	-0.0	-0.0	-0.0	-0.0	-0.0	-0.0	-0.0	-0.0
0.17450000000000002	-0.0	-0.0	-0.0	-8.641494750976562	7.652153968811035	-723.81640625	-0.0	-0.0	-0.0	-0.0	-0.0	-0.0	-0.0	-0.0	-0.0	-0.0	-0.0	-0.0
0.17500000000000002	-0.0	-0.0	-0.0	-8.41066837310791	7.193285942077637	-725.639892578125	-0.0	-0.0	-0.0	-0.0	-0.0	-0.0	-0.0	-0.0	-0.0	-0.0	-0.0	-0.0
0.17550000000000002	-0.0	-0.0	-0.0	-8.207366943359375	7.105639457702637	-725.0261840820312	-0.0	-0.0	-0.0	-0.0	-0.0	-0.0	-0.0	-0.0	-0.0	-0.0	-0.0	-0.0
0.176	-0.0	-0.0	-0.0	-8.679962158203125	6.637269496917725	-726.5889282226562	-0.0	-0.0	-0.0	-0.0	-0.0	-0.0	-0.0	-0.0	-0.0	-0.0	-0.0	-0.0
0.1765	-0.0	-0.0	-0.0	-8.769328117370605	6.671443462371826	-725.9349365234375	-0.0	-0.0	-0.0	-0.0	-0.0	-0.0	-0.0	-0.0	-0.0	-0.0	-0.0	-0.0
0.177	-0.0	-0.0	-0.0	-8.84524154663086	6.172183513641357	-727.2944946289062	-0.0	-0.0	-0.0	-0.0	-0.0	-0.0	-0.0	-0.0	-0.0	-0.0	-0.0	-0.0
0.1775	-0.0	-0.0	-0.0	-8.320964813232422	5.871707439422607	-726.9408569335938	-0.0	-0.0	-0.0	-0.0	-0.0	-0.0	-0.0	-0.0	-0.0	-0.0	-0.0	-0.0
0.178	-0.0	-0.0	-0.0	-7.390915870666504	5.121065139770508	-726.95166015625	-0.0	-0.0	-0.0	-0.0	-0.0	-0.0	-0.0	-0.0	-0.0	-0.0	-0.0	-0.0
0.1785	-0.0	-0.0	-0.0	-6.9448113441467285	4.418753147125244	-727.6045532226562	-0.0	-0.0	-0.0	-0.0	-0.0	-0.0	-0.0	-0.0	-0.0	-0.0	-0.0	-0.0
0.179	-0.0	-0.0	-0.0	-5.850131511688232	4.151400566101074	-726.831298828125	-0.0	-0.0	-0.0	-0.0	-0.0	-0.0	-0.0	-0.0	-0.0	-0.0	-0.0	-0.0
0.1795	-0.0	-0.0	-0.0	-5.277184009552002	2.86592435836792	-726.545654296875	-0.0	-0.0	-0.0	-0.0	-0.0	-0.0	-0.0	-0.0	-0.0	-0.0	-0.0	-0.0
0.18	-0.0	-0.0	-0.0	-5.229532241821289	2.5333073139190674	-725.3919067382812	-0.0	-0.0	-0.0	-0.0	-0.0	-0.0	-0.0	-0.0	-0.0	-0.0	-0.0	-0.0
0.1805	-0.0	-0.0	-0.0	-5.963210582733154	1.9984934329986568	-724.8583374023438	-0.0	-0.0	-0.0	-0.0	-0.0	-0.0	-0.0	-0.0	-0.0	-0.0	-0.0	-0.0
0.181	-0.0	-0.0	-0.0	-6.611254692077637	1.7826080322265625	-724.0189208984375	-0.0	-0.0	-0.0	-0.0	-0.0	-0.0	-0.0	-0.0	-0.0	-0.0	-0.0	-0.0
0.1815	-0.0	-0.0	-0.0	-7.540746688842773	2.0170140266418457	-724.6876831054688	-0.0	-0.0	-0.0	-0.0	-0.0	-0.0	-0.0	-0.0	-0.0	-0.0	-0.0	-0.0
0.182	-0.0	-0.0	-0.0	-8.653419494628906	1.655956745147705	-723.7215576171875	-0.0	-0.0	-0.0	-0.0	-0.0	-0.0	-0.0	-0.0	-0.0	-0.0	-0.0	-0.0
0.1825	-0.0	-0.0	-0.0	-10.089945793151855	1.5577152967453003	-724.3357543945312	-0.0	-0.0	-0.0	-0.0	-0.0	-0.0	-0.0	-0.0	-0.0	-0.0	-0.0	-0.0
0.183	-0.0	-0.0	-0.0	-10.291393280029297	0.9429910778999328	-725.02197265625	-0.0	-0.0	-0.0	-0.0	-0.0	-0.0	-0.0	-0.0	-0.0	-0.0	-0.0	-0.0
0.1835	-0.0	-0.0	-0.0	-11.08525848388672	0.8164609670639038	-725.9896850585938	-0.0	-0.0	-0.0	-0.0	-0.0	-0.0	-0.0	-0.0	-0.0	-0.0	-0.0	-0.0
0.184	-0.0	-0.0	-0.0	-11.105237007141112	0.0834181606769561	-728.4052124023438	-0.0	-0.0	-0.0	-0.0	-0.0	-0.0	-0.0	-0.0	-0.0	-0.0	-0.0	-0.0
0.1845	-0.0	-0.0	-0.0	-11.350179672241213	0.3276364207267761	-729.1350708007812	-0.0	-0.0	-0.0	-0.0	-0.0	-0.0	-0.0	-0.0	-0.0	-0.0	-0.0	-0.0
0.185	-0.0	-0.0	-0.0	-11.113962173461914	-0.4829699397087097	-731.788818359375	-0.0	-0.0	-0.0	-0.0	-0.0	-0.0	-0.0	-0.0	-0.0	-0.0	-0.0	-0.0
0.1855	-0.0	-0.0	-0.0	-10.995619773864746	-0.5639267563819885	-732.0265502929688	-0.0	-0.0	-0.0	-0.0	-0.0	-0.0	-0.0	-0.0	-0.0	-0.0	-0.0	-0.0
0.186	-0.0	-0.0	-0.0	-10.653324127197266	-0.2380916327238083	-733.2595825195312	-0.0	-0.0	-0.0	-0.0	-0.0	-0.0	-0.0	-0.0	-0.0	-0.0	-0.0	-0.0
0.1865	-0.0	-0.0	-0.0	-10.526840209960938	0.2301769256591797	-734.0826416015625	-0.0	-0.0	-0.0	-0.0	-0.0	-0.0	-0.0	-0.0	-0.0	-0.0	-0.0	-0.0
0.187	-0.0	-0.0	-0.0	-9.887120246887209	-0.0147794708609581	-732.4064331054688	-0.0	-0.0	-0.0	-0.0	-0.0	-0.0	-0.0	-0.0	-0.0	-0.0	-0.0	-0.0
0.1875	-0.0	-0.0	-0.0	-9.129213333129885	0.3119503259658813	-734.437744140625	-0.0	-0.0	-0.0	-0.0	-0.0	-0.0	-0.0	-0.0	-0.0	-0.0	-0.0	-0.0
0.188	-0.0	-0.0	-0.0	-8.467323303222656	0.631168007850647	-731.964599609375	-0.0	-0.0	-0.0	-0.0	-0.0	-0.0	-0.0	-0.0	-0.0	-0.0	-0.0	-0.0
0.1885	-0.0	-0.0	-0.0	-8.14026165008545	0.8613308668136597	-730.8761596679688	-0.0	-0.0	-0.0	-0.0	-0.0	-0.0	-0.0	-0.0	-0.0	-0.0	-0.0	-0.0
0.189	-0.0	-0.0	-0.0	-7.791470050811768	2.1020965576171875	-730.2293701171875	-0.0	-0.0	-0.0	-0.0	-0.0	-0.0	-0.0	-0.0	-0.0	-0.0	-0.0	-0.0
0.1895	-0.0	-0.0	-0.0	-7.300106525421143	2.450225830078125	-730.3760986328125	-0.0	-0.0	-0.0	-0.0	-0.0	-0.0	-0.0	-0.0	-0.0	-0.0	-0.0	-0.0
0.19	-0.0	-0.0	-0.0	-6.8626227378845215	3.1717262268066406	-728.1365966796875	-0.0	-0.0	-0.0	-0.0	-0.0	-0.0	-0.0	-0.0	-0.0	-0.0	-0.0	-0.0
0.1905	-0.0	-0.0	-0.0	-6.536545276641846	3.110679149627685	-729.5234375	-0.0	-0.0	-0.0	-0.0	-0.0	-0.0	-0.0	-0.0	-0.0	-0.0	-0.0	-0.0
0.191	-0.0	-0.0	-0.0	-5.6418232917785645	2.8368237018585205	-729.4136352539062	-0.0	-0.0	-0.0	-0.0	-0.0	-0.0	-0.0	-0.0	-0.0	-0.0	-0.0	-0.0
0.1915	-0.0	-0.0	-0.0	-5.048097133636475	2.8890416622161865	-729.8768920898438	-0.0	-0.0	-0.0	-0.0	-0.0	-0.0	-0.0	-0.0	-0.0	-0.0	-0.0	-0.0
0.192	-0.0	-0.0	-0.0	-4.491493701934815	2.447041749954224	-730.084228515625	-0.0	-0.0	-0.0	-0.0	-0.0	-0.0	-0.0	-0.0	-0.0	-0.0	-0.0	-0.0
0.1925	-0.0	-0.0	-0.0	-3.1182074546813965	1.945320963859558	-731.3966064453125	-0.0	-0.0	-0.0	-0.0	-0.0	-0.0	-0.0	-0.0	-0.0	-0.0	-0.0	-0.0
0.193	-0.0	-0.0	-0.0	-3.20043683052063	1.3001906871795654	-732.203857421875	-0.0	-0.0	-0.0	-0.0	-0.0	-0.0	-0.0	-0.0	-0.0	-0.0	-0.0	-0.0
0.1935	-0.0	-0.0	-0.0	-2.335164785385132	0.7654471397399902	-732.1828002929688	-0.0	-0.0	-0.0	-0.0	-0.0	-0.0	-0.0	-0.0	-0.0	-0.0	-0.0	-0.0
0.194	-0.0	-0.0	-0.0	-1.86823844909668	-0.078553020954132	-733.6171875	-0.0	-0.0	-0.0	-0.0	-0.0	-0.0	-0.0	-0.0	-0.0	-0.0	-0.0	-0.0
0.1945	-0.0	-0.0	-0.0	-1.385621428489685	-0.424797385931015	-732.3699340820312	-0.0	-0.0	-0.0	-0.0	-0.0	-0.0	-0.0	-0.0	-0.0	-0.0	-0.0	-0.0
